<?xml version="1.0" standalone="no"?>
<!DOCTYPE svg PUBLIC "-//W3C//DTD SVG 20010904//EN"
 "http://www.w3.org/TR/2001/REC-SVG-20010904/DTD/svg10.dtd">
<svg version="1.0" xmlns="http://www.w3.org/2000/svg"
 width="598.000000pt" height="598.000000pt" viewBox="0 0 598.000000 598.000000"
 preserveAspectRatio="xMidYMid meet">
<metadata>
Created by potrace 1.11, written by Peter Selinger 2001-2013
</metadata>
<g transform="translate(0.000000,598.000000) scale(0.100000,-0.100000)"
fill="#000000" stroke="none">
<path d="M3020 5972 c-151 -42 -255 -223 -275 -482 -4 -47 -7 -572 -7 -1167
l0 -1083 -102 0 c-55 0 -218 -1 -361 -3 -260 -2 -260 -2 -305 -28 -72 -42
-129 -130 -132 -208 -5 -98 59 -199 152 -239 49 -21 61 -22 265 -22 45 0 231
0 245 0 8 0 65 0 126 -1 l112 -1 -2 -1111 c-1 -1220 3 -1141 -61 -1171 -43
-20 -80 -18 -165 11 -83 28 -133 27 -173 -3 -29 -21 -43 -74 -28 -103 6 -10 8
-21 5 -23 -2 -3 2 -11 11 -18 8 -7 15 -18 15 -25 0 -21 132 -151 190 -187 123
-75 194 -97 327 -103 67 -4 92 0 133 17 105 43 188 165 219 320 6 29 14 67 17
83 4 17 9 534 10 1150 2 616 3 1130 3 1143 1 20 6 22 59 22 31 0 66 0 77 0 22
0 221 1 245 0 115 -1 300 1 316 4 79 16 158 83 185 158 22 60 18 142 -11 198
-26 51 -57 81 -115 113 -39 21 -51 22 -394 25 -195 1 -356 4 -359 6 -3 4 -4
2162 0 2210 1 10 16 33 35 51 29 28 41 33 81 32 26 0 76 -11 111 -24 80 -30
131 -28 173 7 25 21 31 33 30 63 -5 128 -188 299 -392 367 -67 22 -215 34
-260 22z"/>
<path d="M1117 4850 c-16 -5 -35 -14 -43 -21 -8 -6 -14 -9 -14 -5 0 4 -16 -8
-36 -26 -38 -35 -72 -93 -81 -137 -3 -14 -5 -771 -6 -1681 l0 -1655 23 -53
c20 -47 100 -134 119 -130 3 1 23 -4 44 -11 104 -36 231 23 290 133 l22 41 0
1685 0 1685 -22 40 c-31 58 -62 89 -111 114 -48 25 -140 35 -185 21z"/>
<path d="M4703 4844 c-74 -27 -143 -108 -159 -188 -2 -12 -4 -764 -4 -1671 0
-1825 -5 -1703 63 -1779 129 -143 370 -92 423 90 9 31 14 67 11 80 -2 13 -1
24 3 24 4 0 4 16 0 34 -4 19 -6 37 -4 39 3 3 5 84 3 147 0 8 0 44 0 80 0 36 0
72 0 80 0 8 0 44 0 80 0 36 0 72 0 80 0 8 0 44 0 80 0 36 0 72 0 80 0 8 0 44
0 80 0 36 0 72 0 80 0 8 0 44 0 80 0 36 0 72 0 80 0 8 0 44 0 80 0 36 0 72 0
80 0 8 0 44 0 80 0 36 0 72 0 80 0 8 0 44 0 80 0 36 0 72 0 80 0 8 0 44 0 80
0 36 0 72 0 80 0 8 0 44 0 80 0 36 0 72 0 80 0 8 0 44 0 80 0 36 0 72 0 80 0
8 0 44 0 80 0 36 0 72 0 80 0 8 0 44 0 80 0 36 0 72 0 80 0 8 0 44 0 80 0 36
0 72 0 80 0 8 0 44 0 80 0 36 0 72 0 80 0 8 0 44 0 80 0 36 0 72 0 80 0 8 0
44 0 80 0 36 0 72 0 80 -1 24 0 153 1 175 9 168 -42 276 -150 322 -49 22 -137
25 -187 7z"/>
<path d="M200 4121 c-24 -9 -63 -35 -86 -57 -78 -78 -74 -21 -74 -1074 0
-1045 -3 -992 69 -1069 54 -58 102 -76 196 -74 67 1 121 25 168 77 29 32 62
86 52 86 -3 0 -1 9 5 19 9 18 15 1814 6 1896 -8 72 -67 154 -136 190 -45 23
-145 26 -200 6z"/>
<path d="M5602 4123 c-59 -21 -126 -91 -148 -155 -14 -43 -22 -143 -14 -183 2
-6 1 -14 0 -20 -2 -13 -2 -87 0 -100 1 -5 1 -14 0 -20 -1 -5 -1 -30 -1 -55 1
-25 2 -49 2 -55 -2 -256 -3 -382 -1 -390 1 -5 1 -14 0 -20 -2 -13 -2 -87 0
-100 1 -5 1 -14 0 -20 -1 -5 -1 -30 -1 -55 1 -25 2 -49 2 -55 -2 -256 -3 -382
-1 -390 1 -5 1 -14 0 -20 -2 -13 -2 -87 0 -100 1 -5 1 -14 0 -20 -1 -5 -1 -30
-1 -55 1 -25 2 -52 2 -60 -5 -221 6 -268 79 -339 101 -98 261 -90 357 16 65
72 63 29 63 1062 0 868 -1 940 -17 985 -21 57 -80 121 -131 143 -50 21 -138
24 -190 6z"/>
</g>
</svg>
