<svg xmlns="http://www.w3.org/2000/svg" viewBox="0 0 432 432"><defs><style>.cls-2,.cls-3{fill:#fff;}.cls-2{stroke:#fff;stroke-linecap:round;stroke-linejoin:round;}</style></defs><title>fitzpo</title><g id="Layer_5" data-name="Layer 5"><circle class="cls-1" cx="216" cy="216" r="216"/></g><g id="Layer_13" data-name="Layer 13"><path class="cls-2" d="M357.66,272.08c.75-4.62-3-7.08-1.86-13.4.31-1.79,1.5-6.77,5.58-9.3,6-3.75,15.64-.42,19.72,5.58,3.22,4.74,2.37,10.17,1.49,15.26-3.41,19.76-18.17,32-20.47,33.86-9.39,7.57-18.92,10.48-26,12.65a99.35,99.35,0,0,1-18.61,3.72c-29.23,3.17-62.54-.14-96.37.37-10.6.16-15.16.59-20.47,3a212.14,212.14,0,0,0-22.69,11.53c-1.07.66-3.77,2.36-6.33,1.49a6.83,6.83,0,0,1-3.72-4.09c-3.7-9.79,26.75-28.25,28.65-29.4A90.83,90.83,0,0,1,208.45,297c14.07-6.06,26-6.34,47.25-6.33,17.74,0,35.48-.44,53.21-.37a85.85,85.85,0,0,0,32-5.32C347,282.66,356.55,278.88,357.66,272.08Z" transform="translate(-72 -72)"/><path class="cls-3" d="M206.33,488c27.21-159.73,54-275.27,65.92-297.34,10.29-19,24.59-27.79,24.59-27.79a85,85,0,0,1,22.49-9.15c7.1-1.77,12.79-2.22,20.1-2.79,5-.39,10.92-.45,22.69-.56,11.29-.1,13.75,0,15.63.19,4.9.38,19.13,1.5,19.44,4.65.22,2.24-6.68,4.69-14.23,7.35a187.72,187.72,0,0,1-18.6,5.3c-10.28,2.7-22.34,5.86-33.31,14.7a59.2,59.2,0,0,0-13.76,15.81,60.33,60.33,0,0,0-3,6c-15.7,36.81-57.12,251.72-57.12,251.72q-4.59,22.11-9.17,44.23A215.31,215.31,0,0,1,226.11,495C218.86,492.84,212.26,490.45,206.33,488Z" transform="translate(-72 -72)"/></g></svg>